{
    "asset" : {
        "generator" : "Khronos glTF Blender I/O v1.7.33",
        "version" : "2.0"
    },
    "scene" : 0,
    "scenes" : [
        {
            "name" : "Scene",
            "nodes" : [
                0,
                1,
                2,
                3
            ]
        }
    ],
    "nodes" : [
        {
            "name" : "Rectangle001",
            "rotation" : [
                0.7071068286895752,
                0,
                0,
                0.7071067094802856
            ],
            "scale" : [
                0.009999999776482582,
                0.009999999776482582,
                0.009999999776482582
            ],
            "translation" : [
                0.005092420615255833,
                3.56221604347229,
                -0.002162775956094265
            ]
        },
        {
            "name" : "Text001",
            "rotation" : [
                0.7071068286895752,
                0,
                0,
                0.7071067094802856
            ],
            "scale" : [
                0.008516798727214336,
                0.008516798727214336,
                0.008516798727214336
            ],
            "translation" : [
                0.011312599293887615,
                3.57985782623291,
                0
            ]
        },
        {
            "name" : "Camera001.Target",
            "scale" : [
                0.009999999776482582,
                0.009999999776482582,
                0.009999999776482582
            ],
            "translation" : [
                0.011463651433587074,
                3.5639708042144775,
                0.6329648494720459
            ]
        },
        {
            "mesh" : 0,
            "name" : "0",
            "scale" : [
                0.009999999776482582,
                0.009999999776482582,
                0.009999999776482582
            ],
            "translation" : [
                -0.3282579779624939,
                -0.1744290292263031,
                -0.07413050532341003
            ]
        }
    ],
    "materials" : [
        {
            "doubleSided" : true,
            "name" : "Material.002",
            "pbrMetallicRoughness" : {
                "baseColorFactor" : [
                    0.8000000715255737,
                    0.4120311439037323,
                    0.021293092519044876,
                    1
                ],
                "metallicFactor" : 1,
                "roughnessFactor" : 0.4000000059604645
            }
        }
    ],
    "meshes" : [
        {
            "name" : "Mesh.003",
            "primitives" : [
                {
                    "attributes" : {
                        "POSITION" : 0,
                        "NORMAL" : 1,
                        "TEXCOORD_0" : 2
                    },
                    "indices" : 3,
                    "material" : 0
                }
            ]
        }
    ],
    "accessors" : [
        {
            "bufferView" : 0,
            "componentType" : 5126,
            "count" : 8715,
            "max" : [
                55.906620025634766,
                81.25855255126953,
                15.026484489440918
            ],
            "min" : [
                9.916603088378906,
                19.866315841674805,
                0.8825375437736511
            ],
            "type" : "VEC3"
        },
        {
            "bufferView" : 1,
            "componentType" : 5126,
            "count" : 8715,
            "type" : "VEC3"
        },
        {
            "bufferView" : 2,
            "componentType" : 5126,
            "count" : 8715,
            "type" : "VEC2"
        },
        {
            "bufferView" : 3,
            "componentType" : 5123,
            "count" : 52290,
            "type" : "SCALAR"
        }
    ],
    "bufferViews" : [
        {
            "buffer" : 0,
            "byteLength" : 104580,
            "byteOffset" : 0
        },
        {
            "buffer" : 0,
            "byteLength" : 104580,
            "byteOffset" : 104580
        },
        {
            "buffer" : 0,
            "byteLength" : 69720,
            "byteOffset" : 209160
        },
        {
            "buffer" : 0,
            "byteLength" : 104580,
            "byteOffset" : 278880
        }
    ],
    "buffers" : [
        {
            "byteLength" : 383460,
            "uri" : "data:application/octet-stream;base64,"
        }
    ]
}
